<svg width="87" height="100" viewBox="0 0 87 100" fill="none" xmlns="http://www.w3.org/2000/svg">
<g clip-path="url(#clip0_79_115)">
<g clip-path="url(#clip1_79_115)">
<path d="M43.1372 0C43.188 0.0578032 43.2877 0.176399 43.3385 0.233206C50.543 12.7456 57.7883 25.2351 64.9908 37.7495C63.4022 40.4802 61.8286 43.2188 60.236 45.9456L60.1174 45.819L44.9271 19.5235C44.3182 18.5309 43.8129 17.4685 43.1372 16.5198C42.2223 18.0007 41.3911 19.5335 40.5062 21.0344C37.337 21.0533 34.1677 21.0473 30.9985 21.0374C31.1989 20.5749 31.4739 20.1544 31.7221 19.7189L40.266 4.92224C41.2297 3.28581 42.1376 1.6155 43.1372 0Z" fill="white"/>
<path d="M0 24.7946C14.1349 24.7816 28.2707 24.7936 42.4066 24.7896C42.8252 24.7886 43.2467 24.7717 43.6643 24.8195C44.9061 27.029 46.1877 29.2175 47.4474 31.418C47.7444 31.9522 48.0903 32.4605 48.3304 33.0246C38.482 33.0744 28.6325 33.0315 18.785 33.0455C17.315 33.0226 15.848 33.0883 14.378 33.0993C14.4528 33.49 14.7189 33.8039 14.9013 34.1477C15.562 35.3058 16.2507 36.4509 16.8925 37.6209C16.8337 37.9329 16.6094 38.187 16.4659 38.468C15.0976 40.8429 13.7243 43.2159 12.3629 45.5948C12.3121 45.6595 12.2124 45.7911 12.1596 45.8559C11.9244 45.5858 11.7739 45.2569 11.5935 44.948L2.73469 29.6012C1.83276 27.9937 0.850105 26.429 0 24.7946Z" fill="white"/>
<path d="M62.0038 24.8384C70.1112 24.8514 78.2196 24.8533 86.327 24.8374L86.2203 25.1184C79.0019 37.6318 71.7745 50.1402 64.5601 62.6556C61.3869 62.6875 58.2147 62.6736 55.0425 62.6626C55.8338 61.1617 56.7287 59.7156 57.5629 58.2387C62.2011 50.202 66.8413 42.1644 71.4775 34.1248C71.6559 33.7979 71.8941 33.4959 71.9888 33.1292C70.2507 33.0973 68.5106 33.1262 66.7705 33.1172C65.6075 31.2386 64.5491 29.2912 63.4249 27.3887C62.9645 26.5326 62.3935 25.7294 62.0038 24.8384Z" fill="white"/>
<path d="M21.8178 36.8934C24.988 36.8864 28.1573 36.8864 31.3285 36.8934C25.6867 46.7489 19.9751 56.5664 14.3164 66.4129C16.0834 66.4318 17.8513 66.396 19.6193 66.4288C21.195 69.1954 22.8384 71.9301 24.3791 74.7146C16.2747 74.7206 8.1703 74.7017 0.0668945 74.7236C0.0878233 74.5492 0.152603 74.3867 0.246284 74.2402C7.44577 61.7956 14.6054 49.3291 21.8178 36.8934Z" fill="white"/>
<path d="M25.864 54.0509C25.9308 53.9314 26.0135 53.8227 26.1102 53.7271C31.8198 63.5127 37.4317 73.3592 43.1432 83.1459C43.2399 83.0432 43.3216 82.9326 43.3904 82.813C44.1109 81.5234 44.8683 80.2567 45.5949 78.9721C45.7085 78.8077 45.7782 78.5296 46.0314 78.5745C49.1368 78.5715 52.2412 78.5764 55.3457 78.5735C51.433 85.461 47.4226 92.2987 43.483 99.1743C43.3875 99.3489 43.2728 99.5123 43.1412 99.6616C40.3208 94.8859 37.5861 90.0574 34.7976 85.2607C30.3508 77.5579 25.8979 69.8571 21.4521 62.1524C21.2976 61.9849 21.3723 61.7856 21.482 61.6212C22.942 59.0968 24.41 56.5773 25.864 54.0509Z" fill="white"/>
<path d="M69.3536 61.8176C70.9392 59.0898 72.474 56.3272 74.1044 53.6274C74.9725 54.9739 75.7169 56.399 76.5381 57.7763C79.7891 63.4301 83.0789 69.0629 86.3069 74.7306C71.7485 74.6857 57.185 74.7396 42.6256 74.7037C41.2722 72.3158 39.8909 69.9459 38.5266 67.565C38.3193 67.1962 38.0761 66.8444 37.9336 66.4438C49.273 66.4338 60.6154 66.4637 71.9557 66.4298C71.1495 64.8592 70.1728 63.3802 69.3536 61.8176Z" fill="white"/>
</g>
</g>
<defs>
<clipPath id="clip0_79_115">
<rect width="86.3271" height="99.6617" fill="white"/>
</clipPath>
<clipPath id="clip1_79_115">
<rect width="86.3271" height="99.6617" fill="white"/>
</clipPath>
</defs>
</svg>
