<svg xmlns="http://www.w3.org/2000/svg" version="1.1" xmlns:xlink="http://www.w3.org/1999/xlink" xmlns:svgjs="http://svgjs.dev/svgjs" width="1500" height="488" viewBox="0 0 1500 488"><g transform="matrix(1,0,0,1,-0.9090909090909918,-0.8255367219726111)"><svg viewBox="0 0 396 129" data-background-color="#ffffff" preserveAspectRatio="xMidYMid meet" height="488" width="1500" xmlns="http://www.w3.org/2000/svg" xmlns:xlink="http://www.w3.org/1999/xlink"><g id="tight-bounds" transform="matrix(1,0,0,1,0.2400000000000091,0.21822589576734686)"><svg viewBox="0 0 395.52 128.56354820846528" height="128.56354820846528" width="395.52"><g><svg viewBox="0 0 565.9507847720715 183.96197664255405" height="128.56354820846528" width="395.52"><g transform="matrix(1,0,0,1,168.45318477207155,56.84692097166777)"><svg viewBox="0 0 397.4975999999999 70.2681346992185" height="70.2681346992185" width="397.4975999999999"><g id="textblocktransform"><svg viewBox="0 0 397.4975999999999 70.2681346992185" height="70.2681346992185" width="397.4975999999999" id="textblock"><g><rect width="397.4975999999999" height="3.4781384458698588" x="0" y="42.665687183044064" fill="#000000" opacity="1" stroke-width="0" stroke="transparent" fill-opacity="1" class="rect-yte-0" data-fill-palette-color="primary" rx="1%" id="yte-0" data-palette-color="#000000"></rect></g><g transform="matrix(1,0,0,1,0.9887999999999693,0)"><svg viewBox="0 0 395.52 38.568403673511504" height="38.568403673511504" width="395.52"><g transform="matrix(1,0,0,1,0,0)"><svg width="395.52" viewBox="-0.5 -32.8 484.49 47.25" height="38.568403673511504" data-palette-color="#000000"><path d="M14.25-18.8Q16.5-17.15 17.82-14.73 19.15-12.3 19.15-9.15L19.15-9.15Q19.15-7.25 18.7-5.2 18.25-3.15 17.3-1.65L17.3-1.65Q16.45-1.05 13.98-0.48 11.5 0.1 9 0.1L9 0.1Q5.25 0.1 3.38-1.8 1.5-3.7 1.5-6.75L1.5-6.75Q1.5-8.7 2.3-10.83 3.1-12.95 4.55-14.9L4.55-14.9Q4.45-16.5 4.45-17.45L4.45-17.45Q4.45-19.65 4.75-21.5L4.75-21.5 5-21.7Q10.6-21.6 14.25-18.8L14.25-18.8ZM8.4-8.9Q9.3-8.8 9.9-8.8L9.9-8.8Q11.95-8.8 14.25-9.2L14.25-9.2Q14.25-9.7 12.83-10.23 11.4-10.75 9.63-11.1 7.85-11.45 7.2-11.45L7.2-11.45Q6.7-10.8 6.7-10.2L6.7-10.2Q6.7-9.1 8.4-8.9L8.4-8.9ZM14.55-28.9Q14.65-28.15 13.45-26.45 12.25-24.75 11.4-24.15L11.4-24.15Q10.45-24.55 9-25.53 7.55-26.5 6.85-27.3L6.85-27.3Q6.35-26.4 5.55-25.45 4.75-24.5 4.25-24.15L4.25-24.15Q3.25-24.6 1.7-25.68 0.15-26.75-0.5-27.5L-0.5-27.5Q-0.2-28.55 1-30.3 2.2-32.05 3-32.05L3-32.05Q3.8-32.05 5.4-30.93 7-29.8 7.35-29.05L7.35-29.05Q8.05-30.3 8.8-31.18 9.55-32.05 10.15-32.05L10.15-32.05Q10.95-32.05 12.68-30.83 14.4-29.6 14.55-28.9L14.55-28.9ZM34.45-24.5Q37-20.7 38.57-16.5 40.15-12.3 40.15-8.1L40.15-8.1Q40.15-4.8 39.05-1.65L39.05-1.65Q37.6-1 34.22-0.43 30.85 0.15 27.5 0.15L27.5 0.15Q24.35 0.15 22.15-0.4L22.15-0.4Q22.3-4.75 23.8-9.3L23.8-9.3Q26.55-9.05 29-9.05L29-9.05Q31.15-9.05 33.1-9.2L33.1-9.2Q31.2-14.15 27.55-18.65L27.55-18.65 34.45-24.5ZM51.7-19.05Q54.15-19.05 55.85-17.32 57.55-15.6 58.34-12.95 59.15-10.3 59-7.7L59-7.7Q58.75-2.25 56.05 3.2 53.35 8.65 50.2 12.4L50.2 12.4Q48.6 11.8 46.22 10.23 43.85 8.65 42.65 7.3L42.65 7.3Q42.8 7.1 43.02 6.9 43.25 6.7 43.45 6.45L43.45 6.45Q47.65 2.1 49.75-1.05L49.75-1.05Q46.8-1.7 44.8-3.53 42.8-5.35 42.8-8.1L42.8-8.1Q42.8-10.55 44.15-13.13 45.5-15.7 47.57-17.38 49.65-19.05 51.7-19.05L51.7-19.05ZM50.5-9.15Q51.7-9 53-9L53-9Q54.1-9 54.6-9.05L54.6-9.05Q53.75-10.1 52.47-10.78 51.2-11.45 50-11.45L50-11.45Q49.1-11.45 48.52-11.08 47.95-10.7 47.95-10L47.95-10Q48.25-9.45 50.5-9.15L50.5-9.15ZM84.49-9.3Q85.29-9.3 85.57-8.15 85.84-7 85.84-4.65L85.84-4.65Q85.84-2.25 85.54-1.13 85.24 0 84.49 0L84.49 0Q82.54 0 80.52-0.98 78.49-1.95 76.74-3.9L76.74-3.9Q76.14-2.95 74.89-1.15L74.89-1.15Q73.59-0.55 71.47-0.15 69.34 0.25 66.89 0.25L66.89 0.25Q63.84 0.25 61.49-0.4L61.49-0.4Q61.69-5 63.14-9.3L63.14-9.3Q65.74-9.05 67.59-9.05L67.59-9.05Q70.54-9.05 73.09-9.6L73.09-9.6Q70.39-14.4 67.09-18.65L67.09-18.65 73.99-24.5Q75.79-21.95 76.92-19.65 78.04-17.35 79.54-13.75L79.54-13.75Q80.34-11.9 80.94-11 81.54-10.1 82.34-9.7 83.14-9.3 84.49-9.3L84.49-9.3ZM112.49-9.3Q113.29-9.3 113.57-8.15 113.84-7 113.84-4.65L113.84-4.65Q113.84-2.25 113.54-1.13 113.24 0 112.49 0L112.49 0Q109.69 0 107.22-1.2 104.74-2.4 103.54-4.6L103.54-4.6Q100.89-4.45 97.99-3.4L97.99-3.4Q96.64-2.9 95.49-2.45L95.49-2.45Q92.44-1.25 90.04-0.63 87.64 0 84.49 0L84.49 0Q83.74 0 83.44-1.13 83.14-2.25 83.14-4.65L83.14-4.65Q83.14-7 83.42-8.15 83.69-9.3 84.49-9.3L84.49-9.3Q87.19-9.3 89.12-9.65 91.04-10 94.19-10.75L94.19-10.75 95.44-11.05 98.54-11.75Q96.64-12.8 95.34-13.3L95.34-13.3Q93.94-13.85 92.34-14.08 90.74-14.3 88.19-14.45L88.19-14.45 87.09-14.5 86.89-14.7Q87.09-16.6 87.67-18.93 88.24-21.25 88.79-22.35L88.79-22.35Q89.84-22.5 90.74-22.5L90.74-22.5Q92.59-22.5 94.19-21.93 95.79-21.35 97.44-20.3L97.44-20.3 99.19-19.15Q103.39-16.45 105.54-15.18 107.69-13.9 108.59-13.9L108.59-13.9Q108.44-11.4 108.09-9.65L108.09-9.65Q109.94-9.3 112.49-9.3L112.49-9.3ZM126.39-8.45L131.44-6.85Q131.24-4.15 130.04-1.33 128.84 1.5 126.74 3.3L126.74 3.3Q124.99 3.3 123.59 2.38 122.19 1.45 120.99-0.95L120.99-0.95Q119.09-0.35 117.01-0.18 114.94 0 112.49 0L112.49 0Q111.74 0 111.44-1.13 111.14-2.25 111.14-4.65L111.14-4.65Q111.14-7 111.41-8.15 111.69-9.3 112.49-9.3L112.49-9.3Q117.69-9.3 119.49-9.6L119.49-9.6Q119.39-12.6 119.01-16.73 118.64-20.85 118.24-24.95L118.24-24.95 117.94-27.85 126.04-28.3 126.19-26.05Q126.24-25.5 126.46-21.93 126.69-18.35 126.69-14.8L126.69-14.8Q126.69-10.85 126.39-8.45L126.39-8.45ZM135.09 0.15L134.78-0.1Q135.03-4.1 135.03-8.4L135.03-8.4Q135.03-16.45 134.44-27.85L134.44-27.85 142.53-28.3Q143.19-18.7 143.19-10.1L143.19-10.1Q143.19-4.65 142.99-1.25L142.99-1.25Q141.94-0.65 139.63-0.28 137.34 0.1 135.09 0.15L135.09 0.15ZM177.18-9.3Q177.98-9.3 178.25-8.15 178.53-7 178.53-4.65L178.53-4.65Q178.53-2.25 178.23-1.13 177.93 0 177.18 0L177.18 0Q175.23 0 173.21-0.98 171.18-1.95 169.43-3.9L169.43-3.9Q168.83-2.95 167.58-1.15L167.58-1.15Q166.28-0.55 164.16-0.15 162.03 0.25 159.58 0.25L159.58 0.25Q156.53 0.25 154.18-0.4L154.18-0.4Q154.38-5 155.83-9.3L155.83-9.3Q158.43-9.05 160.28-9.05L160.28-9.05Q163.23-9.05 165.78-9.6L165.78-9.6Q163.08-14.4 159.78-18.65L159.78-18.65 166.68-24.5Q168.48-21.95 169.61-19.65 170.73-17.35 172.23-13.75L172.23-13.75Q173.03-11.9 173.63-11 174.23-10.1 175.03-9.7 175.83-9.3 177.18-9.3L177.18-9.3ZM196.73-9.3Q197.53-9.3 197.8-8.15 198.08-7 198.08-4.65L198.08-4.65Q198.08-2.25 197.78-1.13 197.48 0 196.73 0L196.73 0Q194.48 0 192.35-0.93 190.23-1.85 188.98-3.5L188.98-3.5 188.53-3.5Q185.98-1.4 183.1-0.7 180.23 0 177.18 0L177.18 0Q176.43 0 176.13-1.13 175.83-2.25 175.83-4.65L175.83-4.65Q175.83-7 176.1-8.15 176.38-9.3 177.18-9.3L177.18-9.3Q181.08-9.3 183.63-10.43 186.18-11.55 187.58-14.6L187.58-14.6 191.78-13.95Q191.73-13.55 191.73-12.85L191.73-12.85Q191.73-10.75 192.83-10.03 193.93-9.3 196.73-9.3L196.73-9.3ZM192.23 6.65Q192.33 7.4 191.13 9.1 189.93 10.8 189.08 11.4L189.08 11.4Q188.13 11 186.68 10.03 185.23 9.05 184.53 8.25L184.53 8.25Q184.03 9.15 183.23 10.1 182.43 11.05 181.93 11.4L181.93 11.4Q180.93 10.95 179.38 9.88 177.83 8.8 177.18 8.05L177.18 8.05Q177.48 7 178.68 5.25 179.88 3.5 180.68 3.5L180.68 3.5Q181.48 3.5 183.08 4.63 184.68 5.75 185.03 6.5L185.03 6.5Q185.73 5.25 186.48 4.38 187.23 3.5 187.83 3.5L187.83 3.5Q188.63 3.5 190.35 4.73 192.08 5.95 192.23 6.65L192.23 6.65ZM215.33-9.3Q216.13-9.3 216.4-8.15 216.68-7 216.68-4.65L216.68-4.65Q216.68-2.25 216.38-1.13 216.08 0 215.33 0L215.33 0Q212.93 0 211.35-0.48 209.78-0.95 208.9-1.6 208.03-2.25 207.03-3.3L207.03-3.3Q204.83-1.8 201.78-0.9 198.73 0 196.73 0L196.73 0Q195.98 0 195.68-1.13 195.38-2.25 195.38-4.65L195.38-4.65Q195.38-7 195.65-8.15 195.93-9.3 196.73-9.3L196.73-9.3Q201.03-9.3 203.43-9.9L203.43-9.9Q202.03-12.85 198.78-12.85L198.78-12.85Q198.43-13.35 198.13-15.18 197.83-17 197.93-18.35L197.93-18.35Q202.88-20.5 207.28-20.5L207.28-20.5Q210.53-20.5 212.45-19.15 214.38-17.8 214.38-15.15L214.38-15.15Q213.28-12.35 211.28-9.55L211.28-9.55Q212.73-9.3 214.88-9.3L214.88-9.3 215.33-9.3ZM251.47-9.3Q252.27-9.3 252.55-8.15 252.82-7 252.82-4.65L252.82-4.65Q252.82-2.25 252.52-1.13 252.22 0 251.47 0L251.47 0Q249.47 0 247.75-0.75 246.02-1.5 244.72-3.5L244.72-3.5 244.27-3.5Q243.77-1.7 242.62-0.75 241.47 0.2 239.92 0.2L239.92 0.2Q236.97 0.2 235.57-3.5L235.57-3.5 235.12-3.5Q234.07-1.7 232.3-0.75 230.52 0.2 228.52 0.2L228.52 0.2Q226.57 0.2 224.87-0.73 223.17-1.65 222.07-3.5L222.07-3.5 221.62-3.5Q220.57-1.85 218.9-0.93 217.22 0 215.32 0L215.32 0Q214.57 0 214.27-1.13 213.97-2.25 213.97-4.65L213.97-4.65Q213.97-7 214.25-8.15 214.52-9.3 215.32-9.3L215.32-9.3Q220.77-9.3 221.47-14.7L221.47-14.7 225.62-14.7Q225.82-11.55 226.72-10.28 227.62-9 229.22-9L229.22-9Q231.42-9 232.5-10.63 233.57-12.25 234.17-14.6L234.17-14.6 238.37-13.95Q238.32-13.55 238.32-12.85L238.32-12.85Q238.32-11 239-10.05 239.67-9.1 240.77-9.1L240.77-9.1Q243.37-9.1 243.62-14.7L243.62-14.7 247.82-14.7Q247.82-12.55 248.02-11.48 248.22-10.4 249-9.85 249.77-9.3 251.47-9.3L251.47-9.3ZM263.52-28.3Q264.22-16.6 264.22-11.15L264.22-11.15Q264.22-8.2 263.77-5.75 263.32-3.3 262.17-1.25L262.17-1.25Q258.72-0.15 251.47 0L251.47 0Q250.72 0 250.42-1.13 250.12-2.25 250.12-4.65L250.12-4.65Q250.12-7 250.4-8.15 250.67-9.3 251.47-9.3L251.47-9.3Q254.77-9.3 257.02-9.5L257.02-9.5Q256.92-12.5 256.55-16.65 256.17-20.8 255.77-24.9L255.77-24.9 255.47-27.85 263.52-28.3ZM268.37 0.15L268.07-0.1Q268.32-4.1 268.32-8.4L268.32-8.4Q268.32-16.45 267.72-27.85L267.72-27.85 275.82-28.3Q276.47-18.7 276.47-10.1L276.47-10.1Q276.47-4.65 276.27-1.25L276.27-1.25Q275.22-0.65 272.92-0.28 270.62 0.1 268.37 0.15L268.37 0.15ZM314.41-9.3Q315.21-9.3 315.49-8.15 315.76-7 315.76-4.65L315.76-4.65Q315.76-2.25 315.46-1.13 315.16 0 314.41 0L314.41 0Q311.11 0 308.81-2.05L308.81-2.05 308.26-1.65Q306.91-0.7 304.81-0.3 302.71 0.1 299.46 0.1L299.46 0.1Q297.56 0.1 295.21-0.05L295.21-0.05Q295.31 3.5 295.79 7.05 296.26 10.6 296.91 13.1L296.91 13.1Q295.81 13.7 293.49 14.08 291.16 14.45 289.01 14.45L289.01 14.45 288.76 14.25Q287.46 8.15 287.46 1.55L287.46 1.55Q287.46-1.1 287.66-3.05L287.66-3.05Q288.01-4.75 289.46-6.75 290.91-8.75 292.36-9.2L292.36-9.2 294.36-9.1Q294.31-9.4 294.31-10L294.31-10Q294.31-12.05 295.34-14.13 296.36-16.2 298.41-17.6 300.46-19 303.36-19L303.36-19Q306.01-19 307.76-17.55 309.51-16.1 310.31-13.5L310.31-13.5 310.31-13.45 310.41-13.15Q311.06-11.05 311.94-10.18 312.81-9.3 314.41-9.3L314.41-9.3ZM299.01-8.85Q300.51-8.6 302.26-8.6L302.26-8.6Q303.96-8.6 305.34-8.85 306.71-9.1 306.96-9.45L306.96-9.45Q306.81-10.1 305.89-10.63 304.96-11.15 303.51-11.15L303.51-11.15Q302.11-11.15 300.79-10.65 299.46-10.15 299.01-8.85L299.01-8.85ZM342.41-9.3Q343.21-9.3 343.49-8.15 343.76-7 343.76-4.65L343.76-4.65Q343.76-2.25 343.46-1.13 343.16 0 342.41 0L342.41 0Q339.61 0 337.14-1.2 334.66-2.4 333.46-4.6L333.46-4.6Q330.81-4.45 327.91-3.4L327.91-3.4Q326.56-2.9 325.41-2.45L325.41-2.45Q322.36-1.25 319.96-0.63 317.56 0 314.41 0L314.41 0Q313.66 0 313.36-1.13 313.06-2.25 313.06-4.65L313.06-4.65Q313.06-7 313.34-8.15 313.61-9.3 314.41-9.3L314.41-9.3Q317.11-9.3 319.04-9.65 320.96-10 324.11-10.75L324.11-10.75 325.36-11.05 328.46-11.75Q326.56-12.8 325.26-13.3L325.26-13.3Q323.86-13.85 322.26-14.08 320.66-14.3 318.11-14.45L318.11-14.45 317.01-14.5 316.81-14.7Q317.01-16.6 317.59-18.93 318.16-21.25 318.71-22.35L318.71-22.35Q319.76-22.5 320.66-22.5L320.66-22.5Q322.51-22.5 324.11-21.93 325.71-21.35 327.36-20.3L327.36-20.3 329.11-19.15Q333.31-16.45 335.46-15.18 337.61-13.9 338.51-13.9L338.51-13.9Q338.36-11.4 338.01-9.65L338.01-9.65Q339.86-9.3 342.41-9.3L342.41-9.3ZM327.81 10.45Q326.76 10.05 325.06 8.88 323.36 7.7 322.71 6.85L322.71 6.85Q322.86 6.2 323.49 5.08 324.11 3.95 324.91 3.03 325.71 2.1 326.31 2L326.31 2Q326.86 1.9 327.99 2.5 329.11 3.1 330.09 3.98 331.06 4.85 331.16 5.35L331.16 5.35Q331.36 6.1 330.04 7.98 328.71 9.85 327.81 10.45L327.81 10.45ZM358.21-9.3Q359.01-9.3 359.28-8.15 359.56-7 359.56-4.65L359.56-4.65Q359.56-2.25 359.26-1.13 358.96 0 358.21 0L358.21 0Q356.11 0 354.18-0.8 352.26-1.6 351.16-3.5L351.16-3.5 350.76-3.5Q349.41-1.55 347.28-0.78 345.16 0 342.41 0L342.41 0Q341.66 0 341.36-1.13 341.06-2.25 341.06-4.65L341.06-4.65Q341.06-7 341.33-8.15 341.61-9.3 342.41-9.3L342.41-9.3Q345.21-9.3 347.13-10.55 349.06-11.8 349.76-14.6L349.76-14.6 354.01-13.95Q353.96-13.55 353.96-12.8L353.96-12.8Q353.96-10.7 354.88-10 355.81-9.3 358.21-9.3L358.21-9.3ZM350.61-18.1Q349.56-18.5 347.86-19.68 346.16-20.85 345.51-21.7L345.51-21.7Q345.66-22.35 346.28-23.48 346.91-24.6 347.71-25.53 348.51-26.45 349.11-26.55L349.11-26.55Q349.66-26.65 350.78-26.05 351.91-25.45 352.88-24.58 353.86-23.7 353.96-23.2L353.96-23.2Q354.16-22.45 352.83-20.58 351.51-18.7 350.61-18.1L350.61-18.1ZM370.26-28.3Q370.96-16.6 370.96-11.15L370.96-11.15Q370.96-8.2 370.51-5.75 370.06-3.3 368.91-1.25L368.91-1.25Q365.46-0.15 358.21 0L358.21 0Q357.46 0 357.16-1.13 356.86-2.25 356.86-4.65L356.86-4.65Q356.86-7 357.13-8.15 357.41-9.3 358.21-9.3L358.21-9.3Q361.51-9.3 363.76-9.5L363.76-9.5Q363.66-12.5 363.28-16.65 362.91-20.8 362.51-24.9L362.51-24.9 362.21-27.85 370.26-28.3ZM375.1 0.15L374.8-0.1Q375.05-4.1 375.05-8.4L375.05-8.4Q375.05-16.45 374.45-27.85L374.45-27.85 382.55-28.3Q383.2-18.7 383.2-10.1L383.2-10.1Q383.2-4.65 383-1.25L383-1.25Q381.95-0.65 379.65-0.28 377.35 0.1 375.1 0.15L375.1 0.15ZM415.15-9.3Q415.95-9.3 416.22-8.15 416.5-7 416.5-4.65L416.5-4.65Q416.5-2.25 416.2-1.13 415.9 0 415.15 0L415.15 0Q412.45 0 410.07-1 407.7-2 406.5-4.4L406.5-4.4Q403.25-2.6 400.1-2.6L400.1-2.6Q397.85-3.3 396.02-5.35 394.2-7.4 394.2-10.25L394.2-10.25Q394.2-12.8 395.77-14.8 397.35-16.8 398.85-17.78 400.35-18.75 403.25-20.35L403.25-20.35Q403.45-20.7 403.75-21.23 404.05-21.75 404.3-22L404.3-22Q405.5-22.4 407.77-22.83 410.05-23.25 411.35-23.25L411.35-23.25 411.75-22.9Q411.85-17.35 412.25-12.3L412.25-12.3Q412.4-10.65 413.07-9.98 413.75-9.3 415.15-9.3L415.15-9.3ZM400-11.85Q401.05-11.4 402.45-11.4L402.45-11.4Q402.95-11.4 404.45-11.6L404.45-11.6Q404.25-13 404.15-14.55L404.15-14.55Q402.75-13.95 401.75-13.35 400.75-12.75 400-11.85L400-11.85ZM414.6-29.65Q414.7-28.9 413.5-27.2 412.3-25.5 411.45-24.9L411.45-24.9Q410.5-25.3 409.05-26.28 407.6-27.25 406.9-28.05L406.9-28.05Q406.4-27.15 405.6-26.2 404.8-25.25 404.3-24.9L404.3-24.9Q403.3-25.35 401.75-26.43 400.2-27.5 399.55-28.25L399.55-28.25Q399.85-29.3 401.05-31.05 402.25-32.8 403.05-32.8L403.05-32.8Q403.85-32.8 405.45-31.68 407.05-30.55 407.4-29.8L407.4-29.8Q408.1-31.05 408.85-31.93 409.6-32.8 410.2-32.8L410.2-32.8Q411-32.8 412.72-31.58 414.45-30.35 414.6-29.65L414.6-29.65ZM435.3-29.45L435.3-21.2 428.45-19.05Q432.95-12.35 432.95-6.45L432.95-6.45Q432.95-5.2 432.7-4.1 432.45-3 431.85-1.55L431.85-1.55Q428.25-0.7 424.45-0.35 420.65 0 415.15 0L415.15 0Q414.4 0 414.1-1.13 413.8-2.25 413.8-4.65L413.8-4.65Q413.8-7 414.07-8.15 414.35-9.3 415.15-9.3L415.15-9.3Q421.1-9.3 425.25-9.7L425.25-9.7Q422.3-13.65 418.7-15.95L418.7-15.95 418.7-24 434.6-29.95 435.3-29.45ZM468.34-25.2Q467.44-25.6 465.94-26.65 464.44-27.7 463.79-28.4L463.79-28.4Q463.94-29 464.54-30.05 465.14-31.1 465.87-31.9 466.59-32.7 467.14-32.7L467.14-32.7Q467.94-32.7 469.57-31.55 471.19-30.4 471.34-29.75L471.34-29.75Q471.44-29.05 470.29-27.4 469.14-25.75 468.34-25.2L468.34-25.2ZM465.34-18Q464.39-18.4 462.82-19.5 461.24-20.6 460.59-21.35L460.59-21.35Q460.84-22.35 462.02-24.03 463.19-25.7 463.99-25.85L463.99-25.85Q464.69-26 466.37-24.85 468.04-23.7 468.44-22.9L468.44-22.9Q469.09-24.1 469.89-24.98 470.69-25.85 471.29-25.85L471.29-25.85Q472.14-25.85 473.82-24.63 475.49-23.4 475.64-22.7L475.64-22.7Q475.74-21.95 474.54-20.25 473.34-18.55 472.49-18L472.49-18Q471.64-18.35 470.19-19.33 468.74-20.3 467.94-21.1L467.94-21.1Q467.44-20.2 466.64-19.28 465.84-18.35 465.34-18L465.34-18ZM483.04-17.1Q483.99-14.25 483.99-10.5L483.99-10.5Q483.99-7.85 483.47-5.45 482.94-3.05 481.94-1.45L481.94-1.45Q478.34 0.3 475.39 0.3L475.39 0.3Q470.99 0.3 468.14-3.5L468.14-3.5 467.74-3.5Q466.99-2.05 465.32-0.95 463.64 0.15 461.59 0.15L461.59 0.15Q460.04 0.15 458.37-1.23 456.69-2.6 455.74-5.45L455.74-5.45Q453.69-4.7 452.09-4.38 450.49-4.05 448.84-3.95L448.84-3.95Q447.79-0.35 446.27 3.35 444.74 7.05 443.39 9.73 442.04 12.4 441.69 12.8L441.69 12.8Q439.94 12.15 437.57 10.58 435.19 9 434.09 7.7L434.09 7.7Q437.69 2.3 440.02-2.33 442.34-6.95 444.04-12.55L444.04-12.55Q447.44-12.5 451.17-13.13 454.89-13.75 457.79-14.9L457.79-14.9Q458.69-12 459.64-10.55 460.59-9.1 461.94-9.1L461.94-9.1Q463.74-9.1 465.07-10.6 466.39-12.1 466.84-14.6L466.84-14.6 471.04-13.95Q470.99-13.5 470.99-12.75L470.99-12.75Q470.99-8.85 474.34-8.85L474.34-8.85Q475.44-8.85 476.84-9.2L476.84-9.2Q476.49-11.1 475.84-12.95 475.19-14.8 475.04-15.25L475.04-15.25 483.04-17.1Z" opacity="1" transform="matrix(1,0,0,1,0,0)" fill="#000000" class="wordmark-text-0" data-fill-palette-color="primary" id="text-0"></path></svg></g></svg></g><g transform="matrix(1,0,0,1,40.54079999999996,50.24110913844648)"><svg viewBox="0 0 316.416 20.02702556077204" height="20.02702556077204" width="316.416"><g transform="matrix(1,0,0,1,0,0)"><svg width="316.416" viewBox="1.3 -35.7 575.0500000000001 36.400000000000006" height="20.02702556077204" data-palette-color="#001f3f"><path d="M4.95 0L1.3 0 14.75-35 17.85-35 31.3 0 27.65 0 21.45-16.4 10.1-16.4 4.95 0ZM15.4-32.4L15.1-32.4 10.45-17.6 21-17.6 15.4-32.4ZM39.4 0L39.4-35 42.8-35 42.8-1Q43.75-1 45.8-1.3L45.8-1.3 54.1-2.55 54.1 0 39.4 0ZM72.89-1.1L72.89-1.1 73.19-4.1 73.49-4.1Q75.44-2.4 77.89-1.45 80.34-0.5 82.74-0.5L82.74-0.5Q86.14-0.5 88.24-2.38 90.34-4.25 90.34-7.4L90.34-7.4Q90.34-9.15 89.57-10.65 88.79-12.15 87.02-13.7 85.24-15.25 82.14-17.05L82.14-17.05Q79.99-18.3 78.04-19.68 76.09-21.05 74.84-22.88 73.59-24.7 73.59-27.25L73.59-27.25Q73.59-31.05 76.34-33.38 79.09-35.7 83.59-35.7L83.59-35.7Q85.59-35.7 87.89-35.27 90.19-34.85 91.44-34.2L91.44-34.2 91.19-31.4 90.89-31.4Q88.04-34.5 83.59-34.5L83.59-34.5Q80.39-34.5 78.44-32.88 76.49-31.25 76.49-28.5L76.49-28.5Q76.49-26.45 77.57-24.98 78.64-23.5 80.34-22.33 82.04-21.15 83.99-20.05L83.99-20.05Q86.24-18.75 88.37-17.3 90.49-15.85 91.87-13.83 93.24-11.8 93.24-8.75L93.24-8.75Q93.24-5.95 91.94-3.83 90.64-1.7 88.27-0.5 85.89 0.7 82.74 0.7L82.74 0.7Q80.74 0.7 78.04 0.2 75.34-0.3 72.89-1.1ZM101.54 0L97.89 0 111.34-35 114.44-35 127.89 0 124.24 0 118.04-16.4 106.69-16.4 101.54 0ZM111.99-32.4L111.69-32.4 107.04-17.6 117.59-17.6 111.99-32.4ZM151.39 0L135.99 0 135.99-35 151.24-35 151.24-32.55 142.49-33.7Q140.19-34 139.39-34L139.39-34 139.39-18.75Q140.04-18.75 142.49-18.9L142.49-18.9 150.69-19.4 150.69-17.1 142.49-17.6Q140.04-17.75 139.39-17.75L139.39-17.75 139.39-1Q140.29-1 142.54-1.3L142.54-1.3 151.39-2.45 151.39 0ZM177.29 0L161.89 0 161.89-35 177.14-35 177.14-32.55 168.39-33.7Q166.09-34 165.29-34L165.29-34 165.29-18.75Q165.94-18.75 168.39-18.9L168.39-18.9 176.59-19.4 176.59-17.1 168.39-17.6Q165.94-17.75 165.29-17.75L165.29-17.75 165.29-1Q166.19-1 168.44-1.3L168.44-1.3 177.29-2.45 177.29 0ZM198.78 0L187.78 0 187.78-35 198.78-35Q204.58-35 208.88-32.8 213.18-30.6 215.58-26.68 217.98-22.75 217.98-17.5L217.98-17.5Q217.98-12.25 215.58-8.33 213.18-4.4 208.88-2.2 204.58 0 198.78 0L198.78 0ZM198.78-33.8L198.78-33.8 191.18-33.8 191.18-1.2 198.78-1.2Q206.03-1.2 210.11-5.5 214.18-9.8 214.18-17.5L214.18-17.5Q214.18-25.2 210.11-29.5 206.03-33.8 198.78-33.8ZM238.93-1.1L238.93-1.1 239.23-4.1 239.53-4.1Q241.48-2.4 243.93-1.45 246.38-0.5 248.78-0.5L248.78-0.5Q252.18-0.5 254.28-2.38 256.38-4.25 256.38-7.4L256.38-7.4Q256.38-9.15 255.6-10.65 254.83-12.15 253.05-13.7 251.28-15.25 248.18-17.05L248.18-17.05Q246.03-18.3 244.08-19.68 242.13-21.05 240.88-22.88 239.63-24.7 239.63-27.25L239.63-27.25Q239.63-31.05 242.38-33.38 245.13-35.7 249.63-35.7L249.63-35.7Q251.63-35.7 253.93-35.27 256.23-34.85 257.48-34.2L257.48-34.2 257.23-31.4 256.93-31.4Q254.08-34.5 249.63-34.5L249.63-34.5Q246.43-34.5 244.48-32.88 242.53-31.25 242.53-28.5L242.53-28.5Q242.53-26.45 243.6-24.98 244.68-23.5 246.38-22.33 248.08-21.15 250.03-20.05L250.03-20.05Q252.28-18.75 254.4-17.3 256.53-15.85 257.9-13.83 259.28-11.8 259.28-8.75L259.28-8.75Q259.28-5.95 257.98-3.83 256.68-1.7 254.3-0.5 251.93 0.7 248.78 0.7L248.78 0.7Q246.78 0.7 244.08 0.2 241.38-0.3 238.93-1.1ZM279.52 0L276.13 0 276.13-34Q275.38-34 273.02-33.7L273.02-33.7 263.23-32.45 263.23-35 292.43-35 292.43-32.45 282.63-33.7Q280.27-34 279.52-34L279.52-34 279.52 0ZM295.97 0L292.32 0 305.77-35 308.87-35 322.32 0 318.67 0 312.47-16.4 301.12-16.4 295.97 0ZM306.42-32.4L306.12-32.4 301.47-17.6 312.02-17.6 306.42-32.4ZM330.42 0L330.42-35 337.12-35Q342.42-35 345.34-32.77 348.27-30.55 348.27-26.55L348.27-26.55Q348.27-23.45 346.44-21.4 344.62-19.35 341.17-18.65L341.17-18.65 341.17-18.35Q344.47-17.7 346.57-15.25 348.67-12.8 349.72-9.2L349.72-9.2Q350.67-5.9 351.59-4.08 352.52-2.25 353.64-1.45 354.77-0.65 356.32-0.3L356.32-0.3 356.32 0 354.27 0Q352.07 0 350.64-0.8 349.22-1.6 348.22-3.5 347.22-5.4 346.32-8.75L346.32-8.75Q344.87-13.9 342.47-16.05 340.07-18.2 336.62-18.2L336.62-18.2 336.32-18.2 336.32-19.1 336.62-19.1Q344.67-19.1 344.67-26.5L344.67-26.5Q344.67-33.8 337.12-33.8L337.12-33.8 333.82-33.8 333.82 0 330.42 0ZM403.62-4.3L403.91-4.3 403.62-1.25Q402.21-0.65 400.21-0.2 398.21 0.25 396.16 0.48 394.12 0.7 392.51 0.7L392.51 0.7Q388.46 0.7 385.01-0.68 381.56-2.05 378.99-4.5 376.41-6.95 374.96-10.28 373.51-13.6 373.51-17.5L373.51-17.5Q373.51-21.4 374.96-24.73 376.41-28.05 378.99-30.5 381.56-32.95 385.01-34.33 388.46-35.7 392.51-35.7L392.51-35.7Q394.16-35.7 396.21-35.45 398.26-35.2 400.21-34.77 402.16-34.35 403.51-33.8L403.51-33.8 403.26-31 402.96-31Q401.12-32.7 398.31-33.6 395.51-34.5 392.51-34.5L392.51-34.5Q388.01-34.5 384.59-32.38 381.16-30.25 379.24-26.43 377.31-22.6 377.31-17.5L377.31-17.5Q377.31-12.35 379.24-8.55 381.16-4.75 384.56-2.63 387.96-0.5 392.51-0.5L392.51-0.5Q395.91-0.5 398.84-1.6 401.76-2.7 403.62-4.3L403.62-4.3ZM410.41-17.5L410.41-17.5Q410.41-21.35 411.79-24.68 413.16-28 415.64-30.48 418.11-32.95 421.44-34.33 424.76-35.7 428.61-35.7L428.61-35.7Q432.46-35.7 435.79-34.33 439.11-32.95 441.59-30.48 444.06-28 445.44-24.68 446.81-21.35 446.81-17.5L446.81-17.5Q446.81-13.65 445.44-10.33 444.06-7 441.59-4.53 439.11-2.05 435.79-0.68 432.46 0.7 428.61 0.7L428.61 0.7Q424.76 0.7 421.44-0.68 418.11-2.05 415.64-4.53 413.16-7 411.79-10.33 410.41-13.65 410.41-17.5ZM414.21-17.5L414.21-17.5Q414.21-12.4 416.01-8.58 417.81-4.75 421.06-2.63 424.31-0.5 428.61-0.5L428.61-0.5Q432.91-0.5 436.16-2.63 439.41-4.75 441.21-8.6 443.01-12.45 443.01-17.5L443.01-17.5Q443.01-22.55 441.21-26.38 439.41-30.2 436.16-32.35 432.91-34.5 428.61-34.5L428.61-34.5Q424.31-34.5 421.09-32.38 417.86-30.25 416.04-26.43 414.21-22.6 414.21-17.5ZM452.81-2.1L452.81-2.1Q452.81-3.25 453.56-3.98 454.31-4.7 455.41-4.7L455.41-4.7Q456.56-4.7 457.29-3.98 458.01-3.25 458.01-2.1L458.01-2.1Q458.01-1 457.29-0.25 456.56 0.5 455.41 0.5L455.41 0.5Q454.31 0.5 453.56-0.25 452.81-1 452.81-2.1ZM482 0L482-35 485.4-35 485.4-1Q486.36-1 488.4-1.3L488.4-1.3 496.7-2.55 496.7 0 482 0ZM513.95 0L510.55 0 510.55-34Q509.8-34 507.45-33.7L507.45-33.7 497.65-32.45 497.65-35 526.85-35 526.85-32.45 517.05-33.7Q514.7-34 513.95-34L513.95-34 513.95 0ZM545.95 0L534.95 0 534.95-35 545.95-35Q551.75-35 556.05-32.8 560.35-30.6 562.75-26.68 565.15-22.75 565.15-17.5L565.15-17.5Q565.15-12.25 562.75-8.33 560.35-4.4 556.05-2.2 551.75 0 545.95 0L545.95 0ZM545.95-33.8L545.95-33.8 538.35-33.8 538.35-1.2 545.95-1.2Q553.2-1.2 557.27-5.5 561.35-9.8 561.35-17.5L561.35-17.5Q561.35-25.2 557.27-29.5 553.2-33.8 545.95-33.8ZM571.15-2.1L571.15-2.1Q571.15-3.25 571.9-3.98 572.65-4.7 573.75-4.7L573.75-4.7Q574.9-4.7 575.62-3.98 576.35-3.25 576.35-2.1L576.35-2.1Q576.35-1 575.62-0.25 574.9 0.5 573.75 0.5L573.75 0.5Q572.65 0.5 571.9-0.25 571.15-1 571.15-2.1Z" opacity="1" transform="matrix(1,0,0,1,0,0)" fill="#001f3f" class="slogan-text-1" data-fill-palette-color="secondary" id="text-1"></path></svg></g></svg></g></svg></g></svg></g><g><svg viewBox="0 0 159.34811030644366 183.96197664255405" height="183.96197664255405" width="159.34811030644366"><g><svg xmlns="http://www.w3.org/2000/svg" xmlns:xlink="http://www.w3.org/1999/xlink" version="1.1" x="0" y="0" viewBox="6.379 0 86.621 100.001" enable-background="new 0 0 100 100" xml:space="preserve" id="icon-0" width="159.34811030644366" height="183.96197664255405" class="icon-icon-0" data-fill-palette-color="accent"></svg></g></svg></g></svg></g><defs></defs><mask id="202eb004-b4f4-4f38-afc5-81cc33851a02"><g id="SvgjsG1285"><svg viewBox="0 0 395.52 128.56354820846528" height="128.56354820846528" width="395.52"><g><svg viewBox="0 0 565.9507847720715 183.96197664255405" height="128.56354820846528" width="395.52"><g transform="matrix(1,0,0,1,168.45318477207155,56.84692097166777)"><svg viewBox="0 0 397.4975999999999 70.2681346992185" height="70.2681346992185" width="397.4975999999999"><g id="SvgjsG1284"><svg viewBox="0 0 397.4975999999999 70.2681346992185" height="70.2681346992185" width="397.4975999999999" id="SvgjsSvg1283"><g><rect width="397.4975999999999" height="3.4781384458698588" x="0" y="42.665687183044064" fill="black" opacity="1" stroke-width="0" stroke="transparent" fill-opacity="1" class="rect-yte-0" rx="1%" id="SvgjsRect1282" data-palette-color="#000000"></rect></g><g transform="matrix(1,0,0,1,0.9887999999999693,0)"><svg viewBox="0 0 395.52 38.568403673511504" height="38.568403673511504" width="395.52"><g transform="matrix(1,0,0,1,0,0)"><svg width="395.52" viewBox="-0.5 -32.8 484.49 47.25" height="38.568403673511504" data-palette-color="#000000"><path d="M14.25-18.8Q16.5-17.15 17.82-14.73 19.15-12.3 19.15-9.15L19.15-9.15Q19.15-7.25 18.7-5.2 18.25-3.15 17.3-1.65L17.3-1.65Q16.45-1.05 13.98-0.48 11.5 0.1 9 0.1L9 0.1Q5.25 0.1 3.38-1.8 1.5-3.7 1.5-6.75L1.5-6.75Q1.5-8.7 2.3-10.83 3.1-12.95 4.55-14.9L4.55-14.9Q4.45-16.5 4.45-17.45L4.45-17.45Q4.45-19.65 4.75-21.5L4.75-21.5 5-21.7Q10.6-21.6 14.25-18.8L14.25-18.8ZM8.4-8.9Q9.3-8.8 9.9-8.8L9.9-8.8Q11.95-8.8 14.25-9.2L14.25-9.2Q14.25-9.7 12.83-10.23 11.4-10.75 9.63-11.1 7.85-11.45 7.2-11.45L7.2-11.45Q6.7-10.8 6.7-10.2L6.7-10.2Q6.7-9.1 8.4-8.9L8.4-8.9ZM14.55-28.9Q14.65-28.15 13.45-26.45 12.25-24.75 11.4-24.15L11.4-24.15Q10.45-24.55 9-25.53 7.55-26.5 6.85-27.3L6.85-27.3Q6.35-26.4 5.55-25.45 4.75-24.5 4.25-24.15L4.25-24.15Q3.25-24.6 1.7-25.68 0.15-26.75-0.5-27.5L-0.5-27.5Q-0.2-28.55 1-30.3 2.2-32.05 3-32.05L3-32.05Q3.8-32.05 5.4-30.93 7-29.8 7.35-29.05L7.35-29.05Q8.05-30.3 8.8-31.18 9.55-32.05 10.15-32.05L10.15-32.05Q10.95-32.05 12.68-30.83 14.4-29.6 14.55-28.9L14.55-28.9ZM34.45-24.5Q37-20.7 38.57-16.5 40.15-12.3 40.15-8.1L40.15-8.1Q40.15-4.8 39.05-1.65L39.05-1.65Q37.6-1 34.22-0.43 30.85 0.15 27.5 0.15L27.5 0.15Q24.35 0.15 22.15-0.4L22.15-0.4Q22.3-4.75 23.8-9.3L23.8-9.3Q26.55-9.05 29-9.05L29-9.05Q31.15-9.05 33.1-9.2L33.1-9.2Q31.2-14.15 27.55-18.65L27.55-18.65 34.45-24.5ZM51.7-19.05Q54.15-19.05 55.85-17.32 57.55-15.6 58.34-12.95 59.15-10.3 59-7.7L59-7.7Q58.75-2.25 56.05 3.2 53.35 8.65 50.2 12.4L50.2 12.4Q48.6 11.8 46.22 10.23 43.85 8.65 42.65 7.3L42.65 7.3Q42.8 7.1 43.02 6.9 43.25 6.7 43.45 6.45L43.45 6.45Q47.65 2.1 49.75-1.05L49.75-1.05Q46.8-1.7 44.8-3.53 42.8-5.35 42.8-8.1L42.8-8.1Q42.8-10.55 44.15-13.13 45.5-15.7 47.57-17.38 49.65-19.05 51.7-19.05L51.7-19.05ZM50.5-9.15Q51.7-9 53-9L53-9Q54.1-9 54.6-9.05L54.6-9.05Q53.75-10.1 52.47-10.78 51.2-11.45 50-11.45L50-11.45Q49.1-11.45 48.52-11.08 47.95-10.7 47.95-10L47.95-10Q48.25-9.45 50.5-9.15L50.5-9.15ZM84.49-9.3Q85.29-9.3 85.57-8.15 85.84-7 85.84-4.65L85.84-4.65Q85.84-2.25 85.54-1.13 85.24 0 84.49 0L84.49 0Q82.54 0 80.52-0.98 78.49-1.95 76.74-3.9L76.74-3.9Q76.14-2.95 74.89-1.15L74.89-1.15Q73.59-0.55 71.47-0.15 69.34 0.25 66.89 0.25L66.89 0.25Q63.84 0.25 61.49-0.4L61.49-0.4Q61.69-5 63.14-9.3L63.14-9.3Q65.74-9.05 67.59-9.05L67.59-9.05Q70.54-9.05 73.09-9.6L73.09-9.6Q70.39-14.4 67.09-18.65L67.09-18.65 73.99-24.5Q75.79-21.95 76.92-19.65 78.04-17.35 79.54-13.75L79.54-13.75Q80.34-11.9 80.94-11 81.54-10.1 82.34-9.7 83.14-9.3 84.49-9.3L84.49-9.3ZM112.49-9.3Q113.29-9.3 113.57-8.15 113.84-7 113.84-4.65L113.84-4.65Q113.84-2.25 113.54-1.13 113.24 0 112.49 0L112.49 0Q109.69 0 107.22-1.2 104.74-2.4 103.54-4.6L103.54-4.6Q100.89-4.45 97.99-3.4L97.99-3.4Q96.64-2.9 95.49-2.45L95.49-2.45Q92.44-1.25 90.04-0.63 87.64 0 84.49 0L84.49 0Q83.74 0 83.44-1.13 83.14-2.25 83.14-4.65L83.14-4.65Q83.14-7 83.42-8.15 83.69-9.3 84.49-9.3L84.49-9.3Q87.19-9.3 89.12-9.65 91.04-10 94.19-10.75L94.19-10.75 95.44-11.05 98.54-11.75Q96.64-12.8 95.34-13.3L95.34-13.3Q93.94-13.85 92.34-14.08 90.74-14.3 88.19-14.45L88.19-14.45 87.09-14.5 86.89-14.7Q87.09-16.6 87.67-18.93 88.24-21.25 88.79-22.35L88.79-22.35Q89.84-22.5 90.74-22.5L90.74-22.5Q92.59-22.5 94.19-21.93 95.79-21.35 97.44-20.3L97.44-20.3 99.19-19.15Q103.39-16.45 105.54-15.18 107.69-13.9 108.59-13.9L108.59-13.9Q108.44-11.4 108.09-9.65L108.09-9.65Q109.94-9.3 112.49-9.3L112.49-9.3ZM126.39-8.45L131.44-6.85Q131.24-4.15 130.04-1.33 128.84 1.5 126.74 3.3L126.74 3.3Q124.99 3.3 123.59 2.38 122.19 1.45 120.99-0.95L120.99-0.95Q119.09-0.35 117.01-0.18 114.94 0 112.49 0L112.49 0Q111.74 0 111.44-1.13 111.14-2.25 111.14-4.65L111.14-4.65Q111.14-7 111.41-8.15 111.69-9.3 112.49-9.3L112.49-9.3Q117.69-9.3 119.49-9.6L119.49-9.6Q119.39-12.6 119.01-16.73 118.64-20.85 118.24-24.95L118.24-24.95 117.94-27.85 126.04-28.3 126.19-26.05Q126.24-25.5 126.46-21.93 126.69-18.35 126.69-14.8L126.69-14.8Q126.69-10.85 126.39-8.45L126.39-8.45ZM135.09 0.15L134.78-0.1Q135.03-4.1 135.03-8.4L135.03-8.4Q135.03-16.45 134.44-27.85L134.44-27.85 142.53-28.3Q143.19-18.7 143.19-10.1L143.19-10.1Q143.19-4.65 142.99-1.25L142.99-1.25Q141.94-0.65 139.63-0.28 137.34 0.1 135.09 0.15L135.09 0.15ZM177.18-9.3Q177.98-9.3 178.25-8.15 178.53-7 178.53-4.65L178.53-4.65Q178.53-2.25 178.23-1.13 177.93 0 177.18 0L177.18 0Q175.23 0 173.21-0.98 171.18-1.95 169.43-3.9L169.43-3.9Q168.83-2.95 167.58-1.15L167.58-1.15Q166.28-0.55 164.16-0.15 162.03 0.25 159.58 0.25L159.58 0.25Q156.53 0.25 154.18-0.4L154.18-0.4Q154.38-5 155.83-9.3L155.83-9.3Q158.43-9.05 160.28-9.05L160.28-9.05Q163.23-9.05 165.78-9.6L165.78-9.6Q163.08-14.4 159.78-18.65L159.78-18.65 166.68-24.5Q168.48-21.95 169.61-19.65 170.73-17.35 172.23-13.75L172.23-13.75Q173.03-11.9 173.63-11 174.23-10.1 175.03-9.7 175.83-9.3 177.18-9.3L177.18-9.3ZM196.73-9.3Q197.53-9.3 197.8-8.15 198.08-7 198.08-4.65L198.08-4.65Q198.08-2.25 197.78-1.13 197.48 0 196.73 0L196.73 0Q194.48 0 192.35-0.93 190.23-1.85 188.98-3.5L188.98-3.5 188.53-3.5Q185.98-1.4 183.1-0.7 180.23 0 177.18 0L177.18 0Q176.43 0 176.13-1.13 175.83-2.25 175.83-4.65L175.83-4.65Q175.83-7 176.1-8.15 176.38-9.3 177.18-9.3L177.18-9.3Q181.08-9.3 183.63-10.43 186.18-11.55 187.58-14.6L187.58-14.6 191.78-13.95Q191.73-13.55 191.73-12.85L191.73-12.85Q191.73-10.75 192.83-10.03 193.93-9.3 196.73-9.3L196.73-9.3ZM192.23 6.65Q192.33 7.4 191.13 9.1 189.93 10.8 189.08 11.4L189.08 11.4Q188.13 11 186.68 10.03 185.23 9.05 184.53 8.25L184.53 8.25Q184.03 9.15 183.23 10.1 182.43 11.05 181.93 11.4L181.93 11.4Q180.93 10.95 179.38 9.88 177.83 8.8 177.18 8.05L177.18 8.05Q177.48 7 178.68 5.25 179.88 3.5 180.68 3.5L180.68 3.5Q181.48 3.5 183.08 4.63 184.68 5.75 185.03 6.5L185.03 6.5Q185.73 5.25 186.48 4.38 187.23 3.5 187.83 3.5L187.83 3.5Q188.63 3.5 190.35 4.73 192.08 5.95 192.23 6.65L192.23 6.65ZM215.33-9.3Q216.13-9.3 216.4-8.15 216.68-7 216.68-4.65L216.68-4.65Q216.68-2.25 216.38-1.13 216.08 0 215.33 0L215.33 0Q212.93 0 211.35-0.48 209.78-0.95 208.9-1.6 208.03-2.25 207.03-3.3L207.03-3.3Q204.83-1.8 201.78-0.9 198.73 0 196.73 0L196.73 0Q195.98 0 195.68-1.13 195.38-2.25 195.38-4.65L195.38-4.65Q195.38-7 195.65-8.15 195.93-9.3 196.73-9.3L196.73-9.3Q201.03-9.3 203.43-9.9L203.43-9.9Q202.03-12.85 198.78-12.85L198.78-12.85Q198.43-13.35 198.13-15.18 197.83-17 197.93-18.35L197.93-18.35Q202.88-20.5 207.28-20.5L207.28-20.5Q210.53-20.5 212.45-19.15 214.38-17.8 214.38-15.15L214.38-15.15Q213.28-12.35 211.28-9.55L211.28-9.55Q212.73-9.3 214.88-9.3L214.88-9.3 215.33-9.3ZM251.47-9.3Q252.27-9.3 252.55-8.15 252.82-7 252.82-4.65L252.82-4.65Q252.82-2.25 252.52-1.13 252.22 0 251.47 0L251.47 0Q249.47 0 247.75-0.75 246.02-1.5 244.72-3.5L244.72-3.5 244.27-3.5Q243.77-1.7 242.62-0.75 241.47 0.2 239.92 0.2L239.92 0.2Q236.97 0.2 235.57-3.5L235.57-3.5 235.12-3.5Q234.07-1.7 232.3-0.75 230.52 0.2 228.52 0.2L228.52 0.2Q226.57 0.2 224.87-0.73 223.17-1.65 222.07-3.5L222.07-3.5 221.62-3.5Q220.57-1.85 218.9-0.93 217.22 0 215.32 0L215.32 0Q214.57 0 214.27-1.13 213.97-2.25 213.97-4.65L213.97-4.65Q213.97-7 214.25-8.15 214.52-9.3 215.32-9.3L215.32-9.3Q220.77-9.3 221.47-14.7L221.47-14.7 225.62-14.7Q225.82-11.55 226.72-10.28 227.62-9 229.22-9L229.22-9Q231.42-9 232.5-10.63 233.57-12.25 234.17-14.6L234.17-14.6 238.37-13.95Q238.32-13.55 238.32-12.85L238.32-12.85Q238.32-11 239-10.05 239.67-9.1 240.77-9.1L240.77-9.1Q243.37-9.1 243.62-14.7L243.62-14.7 247.82-14.7Q247.82-12.55 248.02-11.48 248.22-10.4 249-9.85 249.77-9.3 251.47-9.3L251.47-9.3ZM263.52-28.3Q264.22-16.6 264.22-11.15L264.22-11.15Q264.22-8.2 263.77-5.75 263.32-3.3 262.17-1.25L262.17-1.25Q258.72-0.15 251.47 0L251.47 0Q250.72 0 250.42-1.13 250.12-2.25 250.12-4.65L250.12-4.65Q250.12-7 250.4-8.15 250.67-9.3 251.47-9.3L251.47-9.3Q254.77-9.3 257.02-9.5L257.02-9.5Q256.92-12.5 256.55-16.65 256.17-20.8 255.77-24.9L255.77-24.9 255.47-27.85 263.52-28.3ZM268.37 0.15L268.07-0.1Q268.32-4.1 268.32-8.4L268.32-8.4Q268.32-16.45 267.72-27.85L267.72-27.85 275.82-28.3Q276.47-18.7 276.47-10.1L276.47-10.1Q276.47-4.65 276.27-1.25L276.27-1.25Q275.22-0.65 272.92-0.28 270.62 0.1 268.37 0.15L268.37 0.15ZM314.41-9.3Q315.21-9.3 315.49-8.15 315.76-7 315.76-4.65L315.76-4.65Q315.76-2.25 315.46-1.13 315.16 0 314.41 0L314.41 0Q311.11 0 308.81-2.05L308.81-2.05 308.26-1.65Q306.91-0.7 304.81-0.3 302.71 0.1 299.46 0.1L299.46 0.1Q297.56 0.1 295.21-0.05L295.21-0.05Q295.31 3.5 295.79 7.05 296.26 10.6 296.91 13.1L296.91 13.1Q295.81 13.7 293.49 14.08 291.16 14.45 289.01 14.45L289.01 14.45 288.76 14.25Q287.46 8.15 287.46 1.55L287.46 1.55Q287.46-1.1 287.66-3.05L287.66-3.05Q288.01-4.75 289.46-6.75 290.91-8.75 292.36-9.2L292.36-9.2 294.36-9.1Q294.31-9.4 294.31-10L294.31-10Q294.31-12.05 295.34-14.13 296.36-16.2 298.41-17.6 300.46-19 303.36-19L303.36-19Q306.01-19 307.76-17.55 309.51-16.1 310.31-13.5L310.31-13.5 310.31-13.45 310.41-13.15Q311.06-11.05 311.94-10.18 312.81-9.3 314.41-9.3L314.41-9.3ZM299.01-8.85Q300.51-8.6 302.26-8.6L302.26-8.6Q303.96-8.6 305.34-8.85 306.71-9.1 306.96-9.45L306.96-9.45Q306.81-10.1 305.89-10.63 304.96-11.15 303.51-11.15L303.51-11.15Q302.11-11.15 300.79-10.65 299.46-10.15 299.01-8.85L299.01-8.85ZM342.41-9.3Q343.21-9.3 343.49-8.15 343.76-7 343.76-4.65L343.76-4.65Q343.76-2.25 343.46-1.13 343.16 0 342.41 0L342.41 0Q339.61 0 337.14-1.2 334.66-2.4 333.46-4.6L333.46-4.6Q330.81-4.45 327.91-3.4L327.91-3.4Q326.56-2.9 325.41-2.45L325.41-2.45Q322.36-1.25 319.96-0.63 317.56 0 314.41 0L314.41 0Q313.66 0 313.36-1.13 313.06-2.25 313.06-4.65L313.06-4.65Q313.06-7 313.34-8.15 313.61-9.3 314.41-9.3L314.41-9.3Q317.11-9.3 319.04-9.65 320.96-10 324.11-10.75L324.11-10.75 325.36-11.05 328.46-11.75Q326.56-12.8 325.26-13.3L325.26-13.3Q323.86-13.85 322.26-14.08 320.66-14.3 318.11-14.45L318.11-14.45 317.01-14.5 316.81-14.7Q317.01-16.6 317.59-18.93 318.16-21.25 318.71-22.35L318.71-22.35Q319.76-22.5 320.66-22.5L320.66-22.5Q322.51-22.5 324.11-21.93 325.71-21.35 327.36-20.3L327.36-20.3 329.11-19.15Q333.31-16.45 335.46-15.18 337.61-13.9 338.51-13.9L338.51-13.9Q338.36-11.4 338.01-9.65L338.01-9.65Q339.86-9.3 342.41-9.3L342.41-9.3ZM327.81 10.45Q326.76 10.05 325.06 8.88 323.36 7.7 322.71 6.85L322.71 6.85Q322.86 6.2 323.49 5.08 324.11 3.95 324.91 3.03 325.71 2.1 326.31 2L326.31 2Q326.86 1.9 327.99 2.5 329.11 3.1 330.09 3.98 331.06 4.85 331.16 5.35L331.16 5.35Q331.36 6.1 330.04 7.98 328.71 9.85 327.81 10.45L327.81 10.45ZM358.21-9.3Q359.01-9.3 359.28-8.15 359.56-7 359.56-4.65L359.56-4.65Q359.56-2.25 359.26-1.13 358.96 0 358.21 0L358.21 0Q356.11 0 354.18-0.8 352.26-1.6 351.16-3.5L351.16-3.5 350.76-3.5Q349.41-1.55 347.28-0.78 345.16 0 342.41 0L342.41 0Q341.66 0 341.36-1.13 341.06-2.25 341.06-4.65L341.06-4.65Q341.06-7 341.33-8.15 341.61-9.3 342.41-9.3L342.41-9.3Q345.21-9.3 347.13-10.55 349.06-11.8 349.76-14.6L349.76-14.6 354.01-13.95Q353.96-13.55 353.96-12.8L353.96-12.8Q353.96-10.7 354.88-10 355.81-9.3 358.21-9.3L358.21-9.3ZM350.61-18.1Q349.56-18.5 347.86-19.68 346.16-20.85 345.51-21.7L345.51-21.7Q345.66-22.35 346.28-23.48 346.91-24.6 347.71-25.53 348.51-26.45 349.11-26.55L349.11-26.55Q349.66-26.65 350.78-26.05 351.91-25.45 352.88-24.58 353.86-23.7 353.96-23.2L353.96-23.2Q354.16-22.45 352.83-20.58 351.51-18.7 350.61-18.1L350.61-18.1ZM370.26-28.3Q370.96-16.6 370.96-11.15L370.96-11.15Q370.96-8.2 370.51-5.75 370.06-3.3 368.91-1.25L368.91-1.25Q365.46-0.15 358.21 0L358.21 0Q357.46 0 357.16-1.13 356.86-2.25 356.86-4.65L356.86-4.65Q356.86-7 357.13-8.15 357.41-9.3 358.21-9.3L358.21-9.3Q361.51-9.3 363.76-9.5L363.76-9.5Q363.66-12.5 363.28-16.65 362.91-20.8 362.51-24.9L362.51-24.9 362.21-27.85 370.26-28.3ZM375.1 0.15L374.8-0.1Q375.05-4.1 375.05-8.4L375.05-8.4Q375.05-16.45 374.45-27.85L374.45-27.85 382.55-28.3Q383.2-18.7 383.2-10.1L383.2-10.1Q383.2-4.65 383-1.25L383-1.25Q381.95-0.65 379.65-0.28 377.35 0.1 375.1 0.15L375.1 0.15ZM415.15-9.3Q415.95-9.3 416.22-8.15 416.5-7 416.5-4.65L416.5-4.65Q416.5-2.25 416.2-1.13 415.9 0 415.15 0L415.15 0Q412.45 0 410.07-1 407.7-2 406.5-4.4L406.5-4.4Q403.25-2.6 400.1-2.6L400.1-2.6Q397.85-3.3 396.02-5.35 394.2-7.4 394.2-10.25L394.2-10.25Q394.2-12.8 395.77-14.8 397.35-16.8 398.85-17.78 400.35-18.75 403.25-20.35L403.25-20.35Q403.45-20.7 403.75-21.23 404.05-21.75 404.3-22L404.3-22Q405.5-22.4 407.77-22.83 410.05-23.25 411.35-23.25L411.35-23.25 411.75-22.9Q411.85-17.35 412.25-12.3L412.25-12.3Q412.4-10.65 413.07-9.98 413.75-9.3 415.15-9.3L415.15-9.3ZM400-11.85Q401.05-11.4 402.45-11.4L402.45-11.4Q402.95-11.4 404.45-11.6L404.45-11.6Q404.25-13 404.15-14.55L404.15-14.55Q402.75-13.95 401.75-13.35 400.75-12.75 400-11.85L400-11.85ZM414.6-29.65Q414.7-28.9 413.5-27.2 412.3-25.5 411.45-24.9L411.45-24.9Q410.5-25.3 409.05-26.28 407.6-27.25 406.9-28.05L406.9-28.05Q406.4-27.15 405.6-26.2 404.8-25.25 404.3-24.9L404.3-24.9Q403.3-25.35 401.75-26.43 400.2-27.5 399.55-28.25L399.55-28.25Q399.85-29.3 401.05-31.05 402.25-32.8 403.05-32.8L403.05-32.8Q403.85-32.8 405.45-31.68 407.05-30.55 407.4-29.8L407.4-29.8Q408.1-31.05 408.85-31.93 409.6-32.8 410.2-32.8L410.2-32.8Q411-32.8 412.72-31.58 414.45-30.35 414.6-29.65L414.6-29.65ZM435.3-29.45L435.3-21.2 428.45-19.05Q432.95-12.35 432.95-6.45L432.95-6.45Q432.95-5.2 432.7-4.1 432.45-3 431.85-1.55L431.85-1.55Q428.25-0.7 424.45-0.35 420.65 0 415.15 0L415.15 0Q414.4 0 414.1-1.13 413.8-2.25 413.8-4.65L413.8-4.65Q413.8-7 414.07-8.15 414.35-9.3 415.15-9.3L415.15-9.3Q421.1-9.3 425.25-9.7L425.25-9.7Q422.3-13.65 418.7-15.95L418.7-15.95 418.7-24 434.6-29.95 435.3-29.45ZM468.34-25.2Q467.44-25.6 465.94-26.65 464.44-27.7 463.79-28.4L463.79-28.4Q463.94-29 464.54-30.05 465.14-31.1 465.87-31.9 466.59-32.7 467.14-32.7L467.14-32.7Q467.94-32.7 469.57-31.55 471.19-30.4 471.34-29.75L471.34-29.75Q471.44-29.05 470.29-27.4 469.14-25.75 468.34-25.2L468.34-25.2ZM465.34-18Q464.39-18.4 462.82-19.5 461.24-20.6 460.59-21.35L460.59-21.35Q460.84-22.35 462.02-24.03 463.19-25.7 463.99-25.85L463.99-25.85Q464.69-26 466.37-24.85 468.04-23.7 468.44-22.9L468.44-22.9Q469.09-24.1 469.89-24.98 470.69-25.85 471.29-25.85L471.29-25.85Q472.14-25.85 473.82-24.63 475.49-23.4 475.64-22.7L475.64-22.7Q475.74-21.95 474.54-20.25 473.34-18.55 472.49-18L472.49-18Q471.64-18.35 470.19-19.33 468.74-20.3 467.94-21.1L467.94-21.1Q467.44-20.2 466.64-19.28 465.84-18.35 465.34-18L465.34-18ZM483.04-17.1Q483.99-14.25 483.99-10.5L483.99-10.5Q483.99-7.85 483.47-5.45 482.94-3.05 481.94-1.45L481.94-1.45Q478.34 0.3 475.39 0.3L475.39 0.3Q470.99 0.3 468.14-3.5L468.14-3.5 467.74-3.5Q466.99-2.05 465.32-0.95 463.64 0.15 461.59 0.15L461.59 0.15Q460.04 0.15 458.37-1.23 456.69-2.6 455.74-5.45L455.74-5.45Q453.69-4.7 452.09-4.38 450.49-4.05 448.84-3.95L448.84-3.95Q447.79-0.35 446.27 3.35 444.74 7.05 443.39 9.73 442.04 12.4 441.69 12.8L441.69 12.8Q439.94 12.15 437.57 10.58 435.19 9 434.09 7.7L434.09 7.7Q437.69 2.3 440.02-2.33 442.34-6.95 444.04-12.55L444.04-12.55Q447.44-12.5 451.17-13.13 454.89-13.75 457.79-14.9L457.79-14.9Q458.69-12 459.64-10.55 460.59-9.1 461.94-9.1L461.94-9.1Q463.74-9.1 465.07-10.6 466.39-12.1 466.84-14.6L466.84-14.6 471.04-13.95Q470.99-13.5 470.99-12.75L470.99-12.75Q470.99-8.85 474.34-8.85L474.34-8.85Q475.44-8.85 476.84-9.2L476.84-9.2Q476.49-11.1 475.84-12.95 475.19-14.8 475.04-15.25L475.04-15.25 483.04-17.1Z" opacity="1" transform="matrix(1,0,0,1,0,0)" fill="black" class="wordmark-text-0" id="SvgjsPath1281"></path></svg></g></svg></g><g transform="matrix(1,0,0,1,40.54079999999996,50.24110913844648)"><svg viewBox="0 0 316.416 20.02702556077204" height="20.02702556077204" width="316.416"><g transform="matrix(1,0,0,1,0,0)"><svg width="316.416" viewBox="1.3 -35.7 575.0500000000001 36.400000000000006" height="20.02702556077204" data-palette-color="#001f3f"><path d="M4.95 0L1.3 0 14.75-35 17.85-35 31.3 0 27.65 0 21.45-16.4 10.1-16.4 4.95 0ZM15.4-32.4L15.1-32.4 10.45-17.6 21-17.6 15.4-32.4ZM39.4 0L39.4-35 42.8-35 42.8-1Q43.75-1 45.8-1.3L45.8-1.3 54.1-2.55 54.1 0 39.4 0ZM72.89-1.1L72.89-1.1 73.19-4.1 73.49-4.1Q75.44-2.4 77.89-1.45 80.34-0.5 82.74-0.5L82.74-0.5Q86.14-0.5 88.24-2.38 90.34-4.25 90.34-7.4L90.34-7.4Q90.34-9.15 89.57-10.65 88.79-12.15 87.02-13.7 85.24-15.25 82.14-17.05L82.14-17.05Q79.99-18.3 78.04-19.68 76.09-21.05 74.84-22.88 73.59-24.7 73.59-27.25L73.59-27.25Q73.59-31.05 76.34-33.38 79.09-35.7 83.59-35.7L83.59-35.7Q85.59-35.7 87.89-35.27 90.19-34.85 91.44-34.2L91.44-34.2 91.19-31.4 90.89-31.4Q88.04-34.5 83.59-34.5L83.59-34.5Q80.39-34.5 78.44-32.88 76.49-31.25 76.49-28.5L76.49-28.5Q76.49-26.45 77.57-24.98 78.64-23.5 80.34-22.33 82.04-21.15 83.99-20.05L83.99-20.05Q86.24-18.75 88.37-17.3 90.49-15.85 91.87-13.83 93.24-11.8 93.24-8.75L93.24-8.75Q93.24-5.95 91.94-3.83 90.64-1.7 88.27-0.5 85.89 0.7 82.74 0.7L82.74 0.7Q80.74 0.7 78.04 0.2 75.34-0.3 72.89-1.1ZM101.54 0L97.89 0 111.34-35 114.44-35 127.89 0 124.24 0 118.04-16.4 106.69-16.4 101.54 0ZM111.99-32.4L111.69-32.4 107.04-17.6 117.59-17.6 111.99-32.4ZM151.39 0L135.99 0 135.99-35 151.24-35 151.24-32.55 142.49-33.7Q140.19-34 139.39-34L139.39-34 139.39-18.75Q140.04-18.75 142.49-18.9L142.49-18.9 150.69-19.4 150.69-17.1 142.49-17.6Q140.04-17.75 139.39-17.75L139.39-17.75 139.39-1Q140.29-1 142.54-1.3L142.54-1.3 151.39-2.45 151.39 0ZM177.29 0L161.89 0 161.89-35 177.14-35 177.14-32.55 168.39-33.7Q166.09-34 165.29-34L165.29-34 165.29-18.75Q165.94-18.75 168.39-18.9L168.39-18.9 176.59-19.4 176.59-17.1 168.39-17.6Q165.94-17.75 165.29-17.75L165.29-17.75 165.29-1Q166.19-1 168.44-1.3L168.44-1.3 177.29-2.45 177.29 0ZM198.78 0L187.78 0 187.78-35 198.78-35Q204.58-35 208.88-32.8 213.18-30.6 215.58-26.68 217.98-22.75 217.98-17.5L217.98-17.5Q217.98-12.25 215.58-8.33 213.18-4.4 208.88-2.2 204.58 0 198.78 0L198.78 0ZM198.78-33.8L198.78-33.8 191.18-33.8 191.18-1.2 198.78-1.2Q206.03-1.2 210.11-5.5 214.18-9.8 214.18-17.5L214.18-17.5Q214.18-25.2 210.11-29.5 206.03-33.8 198.78-33.8ZM238.93-1.1L238.93-1.1 239.23-4.1 239.53-4.1Q241.48-2.4 243.93-1.45 246.38-0.5 248.78-0.5L248.78-0.5Q252.18-0.5 254.28-2.38 256.38-4.25 256.38-7.4L256.38-7.4Q256.38-9.15 255.6-10.65 254.83-12.15 253.05-13.7 251.28-15.25 248.18-17.05L248.18-17.05Q246.03-18.3 244.08-19.68 242.13-21.05 240.88-22.88 239.63-24.7 239.63-27.25L239.63-27.25Q239.63-31.05 242.38-33.38 245.13-35.7 249.63-35.7L249.63-35.7Q251.63-35.7 253.93-35.27 256.23-34.85 257.48-34.2L257.48-34.2 257.23-31.4 256.93-31.4Q254.08-34.5 249.63-34.5L249.63-34.5Q246.43-34.5 244.48-32.88 242.53-31.25 242.53-28.5L242.53-28.5Q242.53-26.45 243.6-24.98 244.68-23.5 246.38-22.33 248.08-21.15 250.03-20.05L250.03-20.05Q252.28-18.75 254.4-17.3 256.53-15.85 257.9-13.83 259.28-11.8 259.28-8.75L259.28-8.75Q259.28-5.95 257.98-3.83 256.68-1.7 254.3-0.5 251.93 0.7 248.78 0.7L248.78 0.7Q246.78 0.7 244.08 0.2 241.38-0.3 238.93-1.1ZM279.52 0L276.13 0 276.13-34Q275.38-34 273.02-33.7L273.02-33.7 263.23-32.45 263.23-35 292.43-35 292.43-32.45 282.63-33.7Q280.27-34 279.52-34L279.52-34 279.52 0ZM295.97 0L292.32 0 305.77-35 308.87-35 322.32 0 318.67 0 312.47-16.4 301.12-16.4 295.97 0ZM306.42-32.4L306.12-32.4 301.47-17.6 312.02-17.6 306.42-32.4ZM330.42 0L330.42-35 337.12-35Q342.42-35 345.34-32.77 348.27-30.55 348.27-26.55L348.27-26.55Q348.27-23.45 346.44-21.4 344.62-19.35 341.17-18.65L341.17-18.65 341.17-18.35Q344.47-17.7 346.57-15.25 348.67-12.8 349.72-9.2L349.72-9.2Q350.67-5.9 351.59-4.08 352.52-2.25 353.64-1.45 354.77-0.65 356.32-0.3L356.32-0.3 356.32 0 354.27 0Q352.07 0 350.64-0.8 349.22-1.6 348.22-3.5 347.22-5.4 346.32-8.75L346.32-8.75Q344.87-13.9 342.47-16.05 340.07-18.2 336.62-18.2L336.62-18.2 336.32-18.2 336.32-19.1 336.62-19.1Q344.67-19.1 344.67-26.5L344.67-26.5Q344.67-33.8 337.12-33.8L337.12-33.8 333.82-33.8 333.82 0 330.42 0ZM403.62-4.3L403.91-4.3 403.62-1.25Q402.21-0.65 400.21-0.2 398.21 0.25 396.16 0.48 394.12 0.7 392.51 0.7L392.51 0.7Q388.46 0.7 385.01-0.68 381.56-2.05 378.99-4.5 376.41-6.95 374.96-10.28 373.51-13.6 373.51-17.5L373.51-17.5Q373.51-21.4 374.96-24.73 376.41-28.05 378.99-30.5 381.56-32.95 385.01-34.33 388.46-35.7 392.51-35.7L392.51-35.7Q394.16-35.7 396.21-35.45 398.26-35.2 400.21-34.77 402.16-34.35 403.51-33.8L403.51-33.8 403.26-31 402.96-31Q401.12-32.7 398.31-33.6 395.51-34.5 392.51-34.5L392.51-34.5Q388.01-34.5 384.59-32.38 381.16-30.25 379.24-26.43 377.31-22.6 377.31-17.5L377.31-17.5Q377.31-12.35 379.24-8.55 381.16-4.75 384.56-2.63 387.96-0.5 392.51-0.5L392.51-0.5Q395.91-0.5 398.84-1.6 401.76-2.7 403.62-4.3L403.62-4.3ZM410.41-17.5L410.41-17.5Q410.41-21.35 411.79-24.68 413.16-28 415.64-30.48 418.11-32.95 421.44-34.33 424.76-35.7 428.61-35.7L428.61-35.7Q432.46-35.7 435.79-34.33 439.11-32.95 441.59-30.48 444.06-28 445.44-24.68 446.81-21.35 446.81-17.5L446.81-17.5Q446.81-13.65 445.44-10.33 444.06-7 441.59-4.53 439.11-2.05 435.79-0.68 432.46 0.7 428.61 0.7L428.61 0.7Q424.76 0.7 421.44-0.68 418.11-2.05 415.64-4.53 413.16-7 411.79-10.33 410.41-13.65 410.41-17.5ZM414.21-17.5L414.21-17.5Q414.21-12.4 416.01-8.58 417.81-4.75 421.06-2.63 424.31-0.5 428.61-0.5L428.61-0.5Q432.91-0.5 436.16-2.63 439.41-4.75 441.21-8.6 443.01-12.45 443.01-17.5L443.01-17.5Q443.01-22.55 441.21-26.38 439.41-30.2 436.16-32.35 432.91-34.5 428.61-34.5L428.61-34.5Q424.31-34.5 421.09-32.38 417.86-30.25 416.04-26.43 414.21-22.6 414.21-17.5ZM452.81-2.1L452.81-2.1Q452.81-3.25 453.56-3.98 454.31-4.7 455.41-4.7L455.41-4.7Q456.56-4.7 457.29-3.98 458.01-3.25 458.01-2.1L458.01-2.1Q458.01-1 457.29-0.25 456.56 0.5 455.41 0.5L455.41 0.5Q454.31 0.5 453.56-0.25 452.81-1 452.81-2.1ZM482 0L482-35 485.4-35 485.4-1Q486.36-1 488.4-1.3L488.4-1.3 496.7-2.55 496.7 0 482 0ZM513.95 0L510.55 0 510.55-34Q509.8-34 507.45-33.7L507.45-33.7 497.65-32.45 497.65-35 526.85-35 526.85-32.45 517.05-33.7Q514.7-34 513.95-34L513.95-34 513.95 0ZM545.95 0L534.95 0 534.95-35 545.95-35Q551.75-35 556.05-32.8 560.35-30.6 562.75-26.68 565.15-22.75 565.15-17.5L565.15-17.5Q565.15-12.25 562.75-8.33 560.35-4.4 556.05-2.2 551.75 0 545.95 0L545.95 0ZM545.95-33.8L545.95-33.8 538.35-33.8 538.35-1.2 545.95-1.2Q553.2-1.2 557.27-5.5 561.35-9.8 561.35-17.5L561.35-17.5Q561.35-25.2 557.27-29.5 553.2-33.8 545.95-33.8ZM571.15-2.1L571.15-2.1Q571.15-3.25 571.9-3.98 572.65-4.7 573.75-4.7L573.75-4.7Q574.9-4.7 575.62-3.98 576.35-3.25 576.35-2.1L576.35-2.1Q576.35-1 575.62-0.25 574.9 0.5 573.75 0.5L573.75 0.5Q572.65 0.5 571.9-0.25 571.15-1 571.15-2.1Z" opacity="1" transform="matrix(1,0,0,1,0,0)" fill="black" class="slogan-text-1" id="SvgjsPath1280"></path></svg></g></svg></g></svg></g></svg></g><g><svg viewBox="0 0 159.34811030644366 183.96197664255405" height="183.96197664255405" width="159.34811030644366"><g><svg xmlns="http://www.w3.org/2000/svg" xmlns:xlink="http://www.w3.org/1999/xlink" version="1.1" x="0" y="0" viewBox="6.379 0 86.621 100.001" enable-background="new 0 0 100 100" xml:space="preserve" id="SvgjsSvg1279" width="159.34811030644366" height="183.96197664255405" class="icon-icon-0" data-fill-palette-color="accent"><g fill="white"><path fill="white" d="M49.663 0C49.714 0.058 49.814 0.177 49.865 0.234 57.094 12.789 64.364 25.321 71.591 37.878 69.997 40.618 68.418 43.366 66.82 46.102L66.701 45.975 51.459 19.59C50.848 18.594 50.341 17.528 49.663 16.576 48.745 18.062 47.911 19.6 47.023 21.106 43.843 21.125 40.663 21.119 37.483 21.109 37.684 20.645 37.96 20.223 38.209 19.786L46.782 4.939C47.749 3.297 48.66 1.621 49.663 0"></path><path fill="white" d="M6.379 24.879C20.562 24.866 34.746 24.878 48.93 24.874 49.35 24.873 49.773 24.856 50.192 24.904 51.438 27.121 52.724 29.317 53.988 31.525 54.286 32.061 54.633 32.571 54.874 33.137 44.992 33.187 35.109 33.144 25.228 33.158 23.753 33.135 22.281 33.201 20.806 33.212 20.881 33.604 21.148 33.919 21.331 34.264 21.994 35.426 22.685 36.575 23.329 37.749 23.27 38.062 23.045 38.317 22.901 38.599 21.528 40.982 20.15 43.363 18.784 45.75 18.733 45.815 18.633 45.947 18.58 46.012 18.344 45.741 18.193 45.411 18.012 45.101L9.123 29.702C8.218 28.089 7.232 26.519 6.379 24.879"></path><path fill="white" d="M68.594 24.923C76.729 24.936 84.865 24.938 93 24.922L92.893 25.204C85.65 37.76 78.398 50.311 71.159 62.869 67.975 62.901 64.792 62.887 61.609 62.876 62.403 61.37 63.301 59.919 64.138 58.437 68.792 50.373 73.448 42.308 78.1 34.241 78.279 33.913 78.518 33.61 78.613 33.242 76.869 33.21 75.123 33.239 73.377 33.23 72.21 31.345 71.148 29.391 70.02 27.482 69.558 26.623 68.985 25.817 68.594 24.923"></path><path fill="white" d="M28.271 37.019C31.452 37.012 34.632 37.012 37.814 37.019 32.153 46.908 26.422 56.759 20.744 66.639 22.517 66.658 24.291 66.622 26.065 66.655 27.646 69.431 29.295 72.175 30.841 74.969 22.709 74.975 14.577 74.956 6.446 74.978 6.467 74.803 6.532 74.64 6.626 74.493 13.85 62.006 21.034 49.497 28.271 37.019"></path><path fill="white" d="M32.331 54.235C32.398 54.115 32.481 54.006 32.578 53.91 38.307 63.729 43.938 73.609 49.669 83.429 49.766 83.326 49.848 83.215 49.917 83.095 50.64 81.801 51.4 80.53 52.129 79.241 52.243 79.076 52.313 78.797 52.567 78.842 55.683 78.839 58.798 78.844 61.913 78.841 57.987 85.752 53.963 92.613 50.01 99.512A2.7 2.7 0 0 1 49.667 100.001C46.837 95.209 44.093 90.364 41.295 85.551 36.833 77.822 32.365 70.095 27.904 62.364 27.749 62.196 27.824 61.996 27.934 61.831 29.399 59.298 30.872 56.77 32.331 54.235"></path><path fill="white" d="M75.969 62.028C77.56 59.291 79.1 56.519 80.736 53.81 81.607 55.161 82.354 56.591 83.178 57.973 86.44 63.646 89.741 69.298 92.98 74.985 78.372 74.94 63.759 74.994 49.15 74.958 47.792 72.562 46.406 70.184 45.037 67.795 44.829 67.425 44.585 67.072 44.442 66.67 55.82 66.66 67.201 66.69 78.58 66.656 77.771 65.08 76.791 63.596 75.969 62.028"></path></g></svg></g></svg></g></svg></g><defs><mask></mask></defs></svg><rect width="395.52" height="128.56354820846528" fill="black" stroke="none" visibility="hidden"></rect></g></mask><linearGradient x1="0" x2="1" y1="0.548" y2="0.55" id="3789c177-d4e7-4e29-98cb-0d0799c5c8ec"><stop stop-color="#ff6cab" offset="0"></stop><stop stop-color="#7366ff" offset="1"></stop></linearGradient><rect width="395.52" height="128.56354820846528" fill="url(#3789c177-d4e7-4e29-98cb-0d0799c5c8ec)" mask="url(#202eb004-b4f4-4f38-afc5-81cc33851a02)" data-fill-palette-color="accent"></rect></svg><rect width="395.52" height="128.56354820846528" fill="none" stroke="none" visibility="hidden"></rect></g></svg></g></svg>